<mxfile host="65bd71144e">
    <diagram id="lDE-j1NgARO7Vw2Jt4o-" name="Page-1">
        <mxGraphModel dx="315" dy="614" grid="1" gridSize="10" guides="1" tooltips="1" connect="1" arrows="1" fold="1" page="1" pageScale="1" pageWidth="850" pageHeight="1100" background="#ffffff" math="0" shadow="0">
            <root>
                <mxCell id="0"/>
                <mxCell id="1" parent="0"/>
                <mxCell id="6" value="" style="edgeStyle=none;html=1;" parent="1" source="3" target="5" edge="1">
                    <mxGeometry relative="1" as="geometry"/>
                </mxCell>
                <mxCell id="3" value="类型" style="whiteSpace=wrap;html=1;fontSize=14;align=left;fillColor=#0085FC;strokeColor=none;fontColor=#FFFFFF;shadow=0;dashed=0;strokeWidth=1;spacingLeft=0;fontStyle=1;spacing=5;" parent="1" vertex="1">
                    <mxGeometry x="240" y="250" width="120" height="60" as="geometry"/>
                </mxCell>
                <mxCell id="8" value="" style="edgeStyle=none;html=1;" parent="1" source="5" target="7" edge="1">
                    <mxGeometry relative="1" as="geometry"/>
                </mxCell>
                <mxCell id="9" value="有一个类型&lt;br&gt;代表空集合么？" style="edgeLabel;html=1;align=center;verticalAlign=middle;resizable=0;points=[];" parent="8" vertex="1" connectable="0">
                    <mxGeometry x="-0.34" y="1" relative="1" as="geometry">
                        <mxPoint x="17" y="1" as="offset"/>
                    </mxGeometry>
                </mxCell>
                <mxCell id="5" value="可取值的集合" style="whiteSpace=wrap;html=1;fontSize=14;align=left;fillColor=#0085FC;strokeColor=none;fontColor=#FFFFFF;shadow=0;dashed=0;strokeWidth=1;spacingLeft=0;fontStyle=1;spacing=5;" parent="1" vertex="1">
                    <mxGeometry x="390" y="110" width="120" height="60" as="geometry"/>
                </mxCell>
                <mxCell id="14" value="" style="edgeStyle=none;html=1;" parent="1" source="7" target="12" edge="1">
                    <mxGeometry relative="1" as="geometry"/>
                </mxCell>
                <mxCell id="20" style="edgeStyle=none;html=1;exitX=1;exitY=1;exitDx=0;exitDy=0;entryX=0;entryY=0.5;entryDx=0;entryDy=0;" parent="1" source="7" target="18" edge="1">
                    <mxGeometry relative="1" as="geometry"/>
                </mxCell>
                <mxCell id="23" style="edgeStyle=none;html=1;exitX=0;exitY=0;exitDx=0;exitDy=0;entryX=1;entryY=0.5;entryDx=0;entryDy=0;" parent="1" source="7" target="21" edge="1">
                    <mxGeometry relative="1" as="geometry"/>
                </mxCell>
                <mxCell id="29" value="" style="edgeStyle=none;html=1;fontColor=#e51010;" parent="1" source="7" target="28" edge="1">
                    <mxGeometry relative="1" as="geometry"/>
                </mxCell>
                <mxCell id="7" value="空类型never" style="ellipse;whiteSpace=wrap;html=1;fontSize=14;align=left;fillColor=#0085FC;strokeColor=none;fontColor=#FFFFFF;shadow=0;dashed=0;strokeWidth=1;spacingLeft=0;fontStyle=1;spacing=5;" parent="1" vertex="1">
                    <mxGeometry x="610" y="100" width="100" height="80" as="geometry"/>
                </mxCell>
                <mxCell id="19" value="" style="edgeStyle=none;html=1;" parent="1" source="12" target="18" edge="1">
                    <mxGeometry relative="1" as="geometry"/>
                </mxCell>
                <mxCell id="25" value="" style="edgeStyle=none;html=1;fontColor=#e51010;" parent="1" source="12" target="24" edge="1">
                    <mxGeometry relative="1" as="geometry"/>
                </mxCell>
                <mxCell id="12" value="定义一个这样的函数&lt;br&gt;给定一个消息，记录错误&lt;br&gt;也就是抛出错误&lt;br&gt;throw new Error()&lt;br&gt;这个函数返回的就是never" style="whiteSpace=wrap;html=1;fontSize=14;align=left;fillColor=#FFBC26;strokeColor=none;fontColor=#000000;shadow=0;dashed=0;strokeWidth=1;spacingLeft=0;fontStyle=1;spacing=5;" parent="1" vertex="1">
                    <mxGeometry x="740" y="40" width="230" height="80" as="geometry"/>
                </mxCell>
                <mxCell id="18" value="这个函数从不返回（抛出异常/无限循环）&lt;br&gt;任何值都无法赋值给never（不可赋值类型）&lt;br&gt;无法实例化never类型的变量" style="whiteSpace=wrap;html=1;fontSize=14;align=left;fillColor=#FFBC26;strokeColor=none;fontColor=#000000;shadow=0;dashed=0;strokeWidth=1;spacingLeft=0;fontStyle=1;spacing=5;" parent="1" vertex="1">
                    <mxGeometry x="760" y="180" width="300" height="60" as="geometry"/>
                </mxCell>
                <mxCell id="21" value="空集合" style="whiteSpace=wrap;html=1;fontSize=14;align=left;fillColor=#0085FC;strokeColor=none;fontColor=#FFFFFF;shadow=0;dashed=0;strokeWidth=1;spacingLeft=0;fontStyle=1;spacing=5;" parent="1" vertex="1">
                    <mxGeometry x="400" y="10" width="60" height="60" as="geometry"/>
                </mxCell>
                <mxCell id="27" value="" style="edgeStyle=none;html=1;fontColor=#e51010;" parent="1" source="24" target="26" edge="1">
                    <mxGeometry relative="1" as="geometry"/>
                </mxCell>
                <mxCell id="24" value="自制空类型&lt;br&gt;（TS提供了never，不是所有语言都提供了）" style="html=1;shadow=0;dashed=0;shape=mxgraph.bootstrap.rrect;rSize=5;strokeColor=none;strokeWidth=1;fillColor=#6C767D;fontColor=#FFFFFF;whiteSpace=wrap;align=center;verticalAlign=middle;spacingLeft=0;fontStyle=0;fontSize=16;spacing=5;" parent="1" vertex="1">
                    <mxGeometry x="1070" y="50" width="350" height="60" as="geometry"/>
                </mxCell>
                <mxCell id="26" value="1.定义一个枚举，不在其中定义任何元素&lt;br&gt;2.定义一个结构，使其只有一个私有构造函数&lt;br&gt;（代码在下面👇）" style="rounded=1;whiteSpace=wrap;html=1;fontSize=16;fillColor=#6C767D;strokeColor=none;fontColor=#FFFFFF;shadow=0;dashed=0;strokeWidth=1;spacingLeft=0;fontStyle=0;spacing=5;" parent="1" vertex="1">
                    <mxGeometry x="1160" y="150" width="340" height="60" as="geometry"/>
                </mxCell>
                <mxCell id="40" value="" style="edgeStyle=none;html=1;fontColor=#FFFFFF;" parent="1" source="28" target="39" edge="1">
                    <mxGeometry relative="1" as="geometry"/>
                </mxCell>
                <mxCell id="46" value="" style="edgeStyle=none;html=1;fontColor=#FFFFFF;" parent="1" source="28" target="45" edge="1">
                    <mxGeometry relative="1" as="geometry"/>
                </mxCell>
                <mxCell id="28" value="&amp;nbsp; &amp;nbsp; &amp;nbsp; &amp;nbsp; &amp;nbsp;void&lt;br&gt;&amp;nbsp; &amp;nbsp; &amp;nbsp; 单元类型" style="ellipse;whiteSpace=wrap;html=1;fontSize=14;align=left;fillColor=#0085FC;strokeColor=none;fontColor=#FFFFFF;shadow=0;dashed=0;strokeWidth=1;spacingLeft=0;fontStyle=1;spacing=5;" parent="1" vertex="1">
                    <mxGeometry x="605" y="440" width="110" height="80" as="geometry"/>
                </mxCell>
                <mxCell id="34" value="有返回&lt;br&gt;但是不返回有意义值？" style="edgeLabel;html=1;align=center;verticalAlign=middle;resizable=0;points=[];" parent="1" vertex="1" connectable="0">
                    <mxGeometry x="560" y="210" as="geometry">
                        <mxPoint x="96" y="83" as="offset"/>
                    </mxGeometry>
                </mxCell>
                <mxCell id="35" value="有，调用函数获得函数的副作用&lt;br&gt;比如console.log()&lt;br&gt;将参数输出到调试控制台，不返回有意义的值&lt;br&gt;但是函数执行后，控制权会返回给调用函数" style="html=1;shadow=0;dashed=0;shape=mxgraph.bootstrap.rrect;rSize=5;strokeColor=none;strokeWidth=1;fillColor=#1CA5B8;fontColor=#FFFFFF;whiteSpace=wrap;align=center;verticalAlign=middle;spacingLeft=0;fontStyle=0;fontSize=16;spacing=5;" parent="1" vertex="1">
                    <mxGeometry x="760" y="280" width="350" height="100" as="geometry"/>
                </mxCell>
                <mxCell id="36" value="" style="html=1;shadow=0;dashed=0;align=center;verticalAlign=middle;shape=mxgraph.arrows2.arrow;dy=0.6;dx=40;notch=15;labelBackgroundColor=#18141D;fontColor=#080808;rotation=0;" parent="1" vertex="1">
                    <mxGeometry x="690" y="313.75" width="70" height="32.5" as="geometry"/>
                </mxCell>
                <mxCell id="37" value="&lt;font color=&quot;#ffffff&quot;&gt;所以它返回类型不能是never&lt;/font&gt;" style="html=1;shadow=0;dashed=0;align=center;verticalAlign=middle;shape=mxgraph.arrows2.arrow;dy=0.67;dx=20;notch=0;labelBackgroundColor=#18141D;fontColor=#080808;" parent="1" vertex="1">
                    <mxGeometry x="1100" y="330" width="180" height="60" as="geometry"/>
                </mxCell>
                <mxCell id="44" value="" style="edgeStyle=none;html=1;fontColor=#FFFFFF;" parent="1" source="39" target="41" edge="1">
                    <mxGeometry relative="1" as="geometry"/>
                </mxCell>
                <mxCell id="39" value="只有1个可能值的类型&lt;br&gt;对于这种类型的变量，检查值没意义&lt;br&gt;通常不会创建void类型的变量，从函数返回" style="whiteSpace=wrap;html=1;fontSize=14;align=left;fillColor=#FFBC26;strokeColor=none;fontColor=#000000;shadow=0;dashed=0;strokeWidth=1;spacingLeft=0;fontStyle=1;spacing=5;" parent="1" vertex="1">
                    <mxGeometry x="760" y="440" width="300" height="80" as="geometry"/>
                </mxCell>
                <mxCell id="43" value="" style="edgeStyle=none;html=1;fontColor=#FFFFFF;" parent="1" source="41" target="42" edge="1">
                    <mxGeometry relative="1" as="geometry"/>
                </mxCell>
                <mxCell id="41" value="自制单元类型&lt;br&gt;（大多数语言都提供了，但是不能随意用void）" style="html=1;shadow=0;dashed=0;shape=mxgraph.bootstrap.rrect;rSize=5;strokeColor=none;strokeWidth=1;fillColor=#6C767D;fontColor=#FFFFFF;whiteSpace=wrap;align=center;verticalAlign=middle;spacingLeft=0;fontStyle=0;fontSize=16;spacing=5;" parent="1" vertex="1">
                    <mxGeometry x="1170" y="440" width="350" height="50" as="geometry"/>
                </mxCell>
                <mxCell id="42" value="1.定义一个枚举，只有一个元素&lt;br&gt;2.定义一个没有状态的单例&lt;br&gt;（代码在下面👇）" style="rounded=1;whiteSpace=wrap;html=1;fontSize=16;fillColor=#6C767D;strokeColor=none;fontColor=#FFFFFF;shadow=0;dashed=0;strokeWidth=1;spacingLeft=0;fontStyle=0;spacing=5;" parent="1" vertex="1">
                    <mxGeometry x="1200" y="550" width="340" height="60" as="geometry"/>
                </mxCell>
                <mxCell id="45" value="&amp;nbsp; &amp;nbsp; &amp;nbsp; &amp;nbsp;boolean&lt;br&gt;&amp;nbsp; &amp;nbsp; &amp;nbsp; 布尔类型" style="ellipse;whiteSpace=wrap;html=1;fontSize=14;align=left;fillColor=#0085FC;strokeColor=none;fontColor=#FFFFFF;shadow=0;dashed=0;strokeWidth=1;spacingLeft=0;fontStyle=1;spacing=5;" parent="1" vertex="1">
                    <mxGeometry x="605" y="600" width="110" height="80" as="geometry"/>
                </mxCell>
                <mxCell id="51" value="只有2个取值的类型（true/false）&lt;br&gt;" style="whiteSpace=wrap;html=1;fontSize=14;align=left;fillColor=#FFBC26;strokeColor=none;fontColor=#000000;shadow=0;dashed=0;strokeWidth=1;spacingLeft=0;fontStyle=1;spacing=5;" parent="1" vertex="1">
                    <mxGeometry x="760" y="610" width="300" height="80" as="geometry"/>
                </mxCell>
            </root>
        </mxGraphModel>
    </diagram>
</mxfile>
